<svg width="46" height="56" viewBox="0 0 46 56" fill="none" xmlns="http://www.w3.org/2000/svg">
<path d="M1.98285 4.62364L22.7893 0L43.5957 4.62364C44.7544 4.88111 45.5786 5.90868 45.5786 7.0955V32.3833C45.5786 37.4631 43.0399 42.2068 38.8132 45.0246L22.7893 55.7072L6.76538 45.0246C2.53875 42.2068 0 37.4631 0 32.3833V7.0955C0 5.90868 0.824289 4.88111 1.98285 4.62364ZM22.7893 25.3214C26.2854 25.3214 29.1197 22.4872 29.1197 18.9911C29.1197 15.4949 26.2854 12.6607 22.7893 12.6607C19.2932 12.6607 16.4589 15.4949 16.4589 18.9911C16.4589 22.4872 19.2932 25.3214 22.7893 25.3214ZM11.4642 37.9822H34.1143C33.4846 32.2848 28.6545 27.8536 22.7893 27.8536C16.9241 27.8536 12.094 32.2848 11.4642 37.9822Z" fill="#36398E"/>
</svg>
