<svg width="51" height="51" viewBox="0 0 51 51" preserveAspectRatio="none"  fill="none" xmlns="http://www.w3.org/2000/svg">
<path d="M27.9223 0C30.7719 0.00470979 32.216 0.0198014 33.4639 0.056948L33.9553 0.0730019C34.5231 0.093183 35.0832 0.118504 35.7585 0.150156C38.4529 0.274662 40.291 0.700897 41.9053 1.3276C43.5742 1.9712 44.9838 2.84056 46.3912 4.24803C47.7966 5.65547 48.6661 7.06924 49.3118 8.73413C49.9362 10.3463 50.3626 12.1863 50.4892 14.8809C50.5194 15.5562 50.5437 16.1163 50.5637 16.6841L50.5796 17.1755C50.6166 18.4232 50.6336 19.8675 50.6389 22.7173L50.6409 24.6053C50.6412 24.836 50.6412 25.074 50.6412 25.3196L50.6409 26.0339L50.6394 27.9221C50.6346 30.7718 50.6196 32.2161 50.5824 33.4637L50.5662 33.9552C50.5462 34.5232 50.5209 35.0833 50.4892 35.7584C50.3647 38.4531 49.9362 40.2909 49.3118 41.9051C48.6681 43.5743 47.7966 44.984 46.3912 46.3913C44.9838 47.7967 43.5679 48.666 41.9053 49.3117C40.291 49.9363 38.4529 50.3625 35.7585 50.4891C35.0832 50.5192 34.5231 50.5438 33.9553 50.5636L33.4639 50.5795C32.216 50.6167 30.7719 50.6334 27.9223 50.639L26.034 50.641C25.8034 50.641 25.5653 50.641 25.3197 50.641H24.6054L22.7172 50.6393C19.8675 50.6347 18.4232 50.6195 17.1755 50.5823L16.6841 50.5663C16.1162 50.5461 15.5561 50.5208 14.8809 50.4891C12.1863 50.3648 10.3505 49.9363 8.73413 49.3117C7.06711 48.6682 5.65544 47.7967 4.248 46.3913C2.84056 44.984 1.9733 43.568 1.3276 41.9051C0.700898 40.2909 0.276764 38.4531 0.150157 35.7584C0.120075 35.0833 0.0955379 34.5232 0.0756606 33.9552L0.0597335 33.4637C0.0226882 32.2161 0.00579906 30.7718 0.000329626 27.9221L0 22.7173C0.00470979 19.8675 0.0197761 18.4232 0.0569226 17.1755L0.0730019 16.6841C0.093183 16.1163 0.118505 15.5562 0.150157 14.8809C0.274637 12.1842 0.700898 10.3484 1.3276 8.73413C1.97117 7.06714 2.84056 5.65547 4.248 4.24803C5.65544 2.84056 7.06924 1.9733 8.73413 1.3276C10.3484 0.700897 12.1842 0.276763 14.8809 0.150156C15.5561 0.120099 16.1162 0.0955633 16.6841 0.075686L17.1755 0.0597583C18.4232 0.0226877 19.8675 0.00579845 22.7172 0.000329022L27.9223 0ZM25.3197 12.6589C18.3236 12.6589 12.6589 18.3298 12.6589 25.3196C12.6589 32.3157 18.3298 37.9803 25.3197 37.9803C32.3158 37.9803 37.9804 32.3096 37.9804 25.3196C37.9804 18.3236 32.3095 12.6589 25.3197 12.6589ZM25.3197 17.7232C29.5152 17.7232 32.9162 21.1231 32.9162 25.3196C32.9162 29.5151 29.5162 32.916 25.3197 32.916C21.1242 32.916 17.7232 29.5164 17.7232 25.3196C17.7232 21.1241 21.1229 17.7232 25.3197 17.7232ZM38.6135 8.86073C36.8681 8.86073 35.4483 10.2785 35.4483 12.0238C35.4483 13.769 36.866 15.189 38.6135 15.189C40.3586 15.189 41.7787 13.7712 41.7787 12.0238C41.7787 10.2785 40.3564 8.85856 38.6135 8.86073Z" fill="#626262"/>
</svg>
