<svg width="51" height="48" viewBox="0 0 51 48" preserveAspectRatio="none"  fill="none" xmlns="http://www.w3.org/2000/svg">
<path d="M24.9949 47.5144C21.9808 47.5144 19.9714 46.0919 18.1765 44.839C16.9008 43.9357 15.7042 43.0779 14.2931 42.8408C13.6045 42.7165 12.9046 42.6714 12.2611 42.6714C11.0645 42.6714 10.1163 42.852 9.43896 42.9875C9.00999 43.0665 8.64873 43.1343 8.36652 43.1343C8.07302 43.1343 7.70049 43.0553 7.55373 42.5585C7.42955 42.1521 7.35052 41.7685 7.27152 41.3958C7.06832 40.4589 6.89899 39.883 6.54902 39.8268C2.77858 39.251 0.520848 38.3817 0.0805838 37.3545C0.0467037 37.2415 0.00155567 37.1286 0.00155567 37.0384C-0.0210311 36.7224 0.20476 36.4626 0.520848 36.4062C3.51235 35.9096 6.19908 34.3179 8.46811 31.6989C10.2292 29.6669 11.0871 27.7027 11.1661 27.4882C11.1661 27.4654 11.1887 27.4654 11.1887 27.4654C11.6177 26.5738 11.708 25.8175 11.4483 25.1966C10.9629 24.0338 9.35993 23.537 8.26493 23.1985C7.9827 23.1192 7.74564 23.0291 7.54243 22.9612C6.60546 22.5888 5.04764 21.7985 5.25082 20.7036C5.39758 19.9133 6.44743 19.3489 7.30538 19.3489C7.54243 19.3489 7.74564 19.3828 7.91496 19.4732C8.87452 19.9133 9.74375 20.1392 10.4888 20.1392C11.4145 20.1392 11.8548 19.7892 11.9676 19.6763C11.945 19.1795 11.9112 18.6604 11.8773 18.175C11.6515 14.7205 11.3919 10.4308 12.4869 7.96985C15.772 0.609589 22.7483 0.0225866 24.8143 0.0225866C24.8708 0.0225866 25.7173 0 25.7173 0C25.7512 0 25.7963 0 25.8416 0C27.9073 0 34.8839 0.575733 38.1688 7.94729C39.2751 10.4082 39.0042 14.7093 38.7783 18.1522L38.7558 18.3216C38.7333 18.7845 38.6993 19.2248 38.6768 19.6763C38.7897 19.7667 39.1961 20.1052 40.0315 20.1166C40.7539 20.0941 41.5442 19.8568 42.4472 19.4504C42.7295 19.3263 43.023 19.2813 43.2374 19.2813C43.5535 19.2813 43.8697 19.3603 44.1407 19.4504H44.1632C44.9195 19.7327 45.4161 20.2632 45.4161 20.8165C45.4389 21.3358 45.0325 22.1259 43.102 22.9048C42.8989 22.9838 42.6616 23.0742 42.3796 23.142C41.3072 23.4694 39.7041 23.9885 39.1961 25.1401C38.9138 25.7496 39.0267 26.5285 39.4557 27.4092C39.4557 27.4317 39.4782 27.4317 39.4782 27.4317C39.6026 27.7477 42.865 35.1533 50.1236 36.3611C50.4396 36.4176 50.6429 36.6771 50.6429 36.9931C50.6429 37.106 50.6204 37.219 50.5639 37.3205C50.1236 38.3592 47.8885 39.206 44.0953 39.7929C43.7454 39.8494 43.5762 40.4249 43.3729 41.3621C43.2939 41.7457 43.2035 42.1184 43.0908 42.5248C42.9779 42.8973 42.7409 43.1004 42.3345 43.1004H42.278C42.0182 43.1004 41.6683 43.0665 41.2054 42.9763C40.3928 42.8069 39.501 42.6828 38.3833 42.6828C37.7174 42.6828 37.0286 42.7393 36.3513 42.852C34.9515 43.0779 33.7437 43.9471 32.468 44.8501C30.6504 46.0919 28.6298 47.5144 25.6383 47.5144C25.6383 47.5144 25.0853 47.5144 24.9949 47.5144Z" fill="#626262"/>
</svg>
