<svg width="61" height="61" viewBox="0 0 61 61" fill="none" preserveAspectRatio="none"  xmlns="http://www.w3.org/2000/svg">
<path d="M10.1308 50.6443V35.4514C10.1308 24.2637 19.2002 15.1943 30.3879 15.1943C41.5757 15.1943 50.645 24.2637 50.645 35.4514V50.6443H53.1772V55.7086H7.59861V50.6443H10.1308ZM15.195 35.4514H20.2593C20.2593 29.8576 24.794 25.3228 30.3879 25.3228V20.2585C21.9971 20.2585 15.195 27.0606 15.195 35.4514ZM27.8557 5.06567H32.92V12.6621H27.8557V5.06567ZM50.0834 12.1749L53.6644 15.756L48.2929 21.1274L44.712 17.5464L50.0834 12.1749ZM7.11145 15.756L10.6924 12.1749L16.0639 17.5464L12.4829 21.1274L7.11145 15.756Z" fill="#D44CF6"/>
</svg>
