<svg width="61" height="61" viewBox="0 0 61 61" fill="none" preserveAspectRatio="none"  xmlns="http://www.w3.org/2000/svg">
<path d="M34.7296 4.92993L44.1854 8.55968L42.3706 13.2876L40.0066 12.3796L38.1166 17.3043C40.0889 18.4729 41.774 20.0747 43.0409 21.9788L47.859 19.8319L46.8292 17.5186L51.4557 15.4588L55.5752 24.7117L50.9487 26.7716L49.9189 24.4583L45.102 26.6042C45.4114 27.8128 45.576 29.0794 45.576 30.3844C45.576 31.413 45.4737 32.418 45.279 33.3893L50.2015 35.2783L51.1098 32.9161L55.8376 34.7309L52.208 44.1867L47.48 42.3719L48.3857 40.0089L43.4632 38.1179C42.2946 40.0902 40.6928 41.7753 38.7889 43.0421L40.9356 47.8603L43.249 46.8305L45.3089 51.4569L36.0559 55.5765L33.996 50.95L36.3094 49.9202L34.1634 45.1033C32.9548 45.4127 31.6882 45.5773 30.3832 45.5773C29.3536 45.5773 28.3478 45.4748 27.3757 45.2798L25.487 50.2038L27.8515 51.1111L26.0367 55.8388L16.5809 52.2092L18.3957 47.4812L20.7565 48.388L22.6497 43.4645C20.6775 42.2959 18.9924 40.6941 17.7254 38.7899L12.9073 40.9369L13.9372 43.2503L9.31071 45.3099L5.19107 36.0572L9.81752 33.9973L10.8451 36.3114L15.6644 34.1647C15.3549 32.9561 15.1903 31.6895 15.1903 30.3844C15.1903 29.3556 15.2926 28.3509 15.4874 27.3795L10.5614 25.4893L9.65663 27.8528L4.92871 26.038L8.55846 16.5821L13.2864 18.397L12.3773 20.7588L17.3031 22.651C18.4716 20.6788 20.0735 18.9936 21.9776 17.7266L19.8306 12.9085L17.5174 13.9384L15.4576 9.31196L24.7105 5.19229L26.7703 9.81874L24.4571 10.8487L26.6029 15.6656C27.8115 15.3561 29.0781 15.1915 30.3832 15.1915C31.412 15.1915 32.4167 15.2938 33.3881 15.4886L35.276 10.5636L32.9148 9.65785L34.7296 4.92993ZM25.6582 33.504C24.9589 34.7152 25.3738 36.2638 26.585 36.9632C27.7961 37.6623 29.3447 37.2473 30.0439 36.0362C30.7432 34.8251 30.3282 33.2767 29.1171 32.5773C27.906 31.8782 26.3573 32.2929 25.6582 33.504ZM35.4475 27.8523C34.049 27.8523 32.9153 28.9859 32.9153 30.3844C32.9153 31.7829 34.049 32.9166 35.4475 32.9166C36.846 32.9166 37.9796 31.7829 37.9796 30.3844C37.9796 28.9859 36.846 27.8523 35.4475 27.8523ZM26.585 23.8057C25.3738 24.505 24.9589 26.0535 25.6582 27.2646C26.3573 28.4757 27.906 28.8907 29.1171 28.1916C30.3282 27.4922 30.7432 25.9436 30.0439 24.7325C29.3447 23.5214 27.7961 23.1065 26.585 23.8057Z" fill="#AC09A6"/>
</svg>
