<svg width="81" height="81" viewBox="0 0 81 81" fill="none" preserveAspectRatio="none"  xmlns="http://www.w3.org/2000/svg">
<path d="M61.5486 36.8011C66.7842 42.0367 66.7842 50.5249 61.5486 55.7605L42.5892 74.7202C41.2804 76.029 39.1582 76.029 37.8494 74.7202L18.8897 55.7605C13.6542 50.5249 13.6542 42.0367 18.8897 36.8011C24.1252 31.5655 32.6137 31.5655 37.8494 36.8011L40.217 39.1687L42.5892 36.8011C47.8248 31.5655 56.3131 31.5655 61.5486 36.8011ZM40.2193 3.35474C47.6233 3.35474 53.6257 9.357 53.6257 16.7612C53.6257 24.1653 47.6233 30.1676 40.2193 30.1676C32.8151 30.1676 26.8128 24.1653 26.8128 16.7612C26.8128 9.357 32.8151 3.35474 40.2193 3.35474Z" fill="#36398E"/>
</svg>
