<svg width="61" height="61" viewBox="0 0 61 61" fill="none" preserveAspectRatio="none"  xmlns="http://www.w3.org/2000/svg">
<path d="M50.6427 5.06567C52.0412 5.06567 53.1749 6.19937 53.1749 7.59782V53.1764C53.1749 54.5749 52.0412 55.7086 50.6427 55.7086H15.1927C13.7942 55.7086 12.6605 54.5749 12.6605 53.1764V48.1121H7.59625V43.0478H12.6605V37.9836H7.59625V32.9193H12.6605V27.855H7.59625V22.7907H12.6605V17.7264H7.59625V12.6621H12.6605V7.59782C12.6605 6.19937 13.7942 5.06567 15.1927 5.06567H50.6427ZM35.4498 20.2585H30.3856V27.855H22.7891V32.9193H30.383L30.3856 40.5157H35.4498L35.4473 32.9193H43.0463V27.855H35.4498V20.2585Z" fill="#16B3C9"/>
</svg>
