<svg width="61" height="61" viewBox="0 0 61 61" fill="none" preserveAspectRatio="none"  xmlns="http://www.w3.org/2000/svg">
<path d="M33.4135 5.74123L41.643 19.9951C42.3421 21.2062 41.9271 22.7548 40.716 23.4541L37.4255 25.351L39.9589 29.739L35.5729 32.2711L33.0395 27.8831L29.7515 29.7845C28.5404 30.4837 26.9918 30.0686 26.2926 28.8575L21.6391 20.7991C16.4422 22.3759 12.6596 27.2043 12.6596 32.9163C12.6596 34.4999 12.9503 36.0154 13.4812 37.4126C15.4429 36.1676 17.7655 35.4484 20.256 35.4484C24.5203 35.4484 28.2923 37.5567 30.5864 40.7877L50.0545 29.5495L52.5867 33.9355L32.6377 45.4529C32.8205 46.3096 32.9167 47.1981 32.9167 48.1092C32.9167 48.9769 32.8294 49.8244 32.6633 50.6431L53.1739 50.6413V55.7056L10.1288 55.7086C8.53799 53.5923 7.59528 50.9609 7.59528 48.1092C7.59528 45.5588 8.3494 43.1844 9.64684 41.1972C8.33659 38.7271 7.59528 35.9083 7.59528 32.9163C7.59528 25.3318 12.359 18.8599 19.0577 16.3294L18.0631 14.6037C16.6646 12.1815 17.4945 9.08427 19.9168 7.68579L26.4955 3.88758C28.9177 2.48912 32.015 3.31904 33.4135 5.74123Z" fill="#36398E"/>
</svg>
